<svg xmlns="http://www.w3.org/2000/svg" xmlns:xlink="http://www.w3.org/1999/xlink" width="150" height="95" viewBox="0 0 150 95"><defs><style>.a{fill:#394a57;}.b{fill:url(#a);}.c{fill:url(#b);}.d{fill:url(#c);}.e{fill:#333635;}</style><linearGradient id="a" x1="102.67" y1="68.83" x2="144.35" y2="96.41" gradientTransform="matrix(1, 0, 0, -1, 0, 96)" gradientUnits="userSpaceOnUse"><stop offset="0.12" stop-color="#00a65e"></stop><stop offset="0.55" stop-color="#68bd49"></stop><stop offset="0.9" stop-color="#cfdd45"></stop></linearGradient><linearGradient id="b" x1="34.96" y1="33.66" x2="55.18" y2="90.77" gradientTransform="matrix(1, 0, 0, -1, 0, 96)" gradientUnits="userSpaceOnUse"><stop offset="0" stop-color="#15397f"></stop><stop offset="0.4" stop-color="#008cd1"></stop><stop offset="0.9" stop-color="#00b0da"></stop></linearGradient><linearGradient id="c" x1="66.93" y1="68.94" x2="108.1" y2="52.3" gradientTransform="matrix(1, 0, 0, -1, 0, 96)" gradientUnits="userSpaceOnUse"><stop offset="0.1" stop-color="#3d2986"></stop><stop offset="0.5" stop-color="#565eaa"></stop><stop offset="0.95" stop-color="#a587be"></stop></linearGradient></defs><title>Artboard 1</title><path class="a" d="M39.5,77.5c0-3.1-2.2-3.8-5.4-3.8a16.59,16.59,0,0,0-5.6,1,8.18,8.18,0,0,1-1-2.4,10.06,10.06,0,0,1-.3-2.7,27.27,27.27,0,0,1,8.3-1.4c3.7,0,6.5,1,8.3,2.7s2.5,4.2,2.5,7.5V93a30.16,30.16,0,0,1-9.6,1.5c-5.6,0-11.2-1.5-11.2-8.5,0-6,5.5-8.2,11-8.2.9,0,2,0,3.1.1v-.4Zm0,5a22.86,22.86,0,0,0-2.5-.2c-2.7,0-5.2.7-5.2,3.6,0,3.2,3,3.4,4.9,3.4a20.22,20.22,0,0,0,2.7-.3V82.5Z"></path><path class="a" d="M14.1,77.5c0-3.1-2.2-3.8-5.4-3.8a16.59,16.59,0,0,0-5.6,1,8.18,8.18,0,0,1-1-2.4,10.06,10.06,0,0,1-.3-2.7,27.27,27.27,0,0,1,8.3-1.4c3.7,0,6.5,1,8.3,2.7s2.5,4.2,2.5,7.5V93a30.16,30.16,0,0,1-9.6,1.5C5.6,94.6,0,93.1,0,86.2c0-6,5.5-8.2,11-8.2.9,0,2,0,3.1.1Zm0,5a22.86,22.86,0,0,0-2.5-.2c-2.7,0-5.2.7-5.2,3.6,0,3.2,3,3.4,4.9,3.4A20.22,20.22,0,0,0,14,89V82.5Z"></path><path class="a" d="M53,80.8a6.37,6.37,0,0,1-1.5-4.6c0-5.3,4.3-7.9,9.9-7.9a20.65,20.65,0,0,1,7.5,1.4,13.18,13.18,0,0,1-.5,2.6q-.45,1.35-.9,2.4a14,14,0,0,0-5.6-1.2c-2,0-3.5.6-3.5,2.1s1,1.8,2.5,2.3l2.8.8c4.6,1.3,6,3.7,6,7.4,0,5.4-5,8.5-11.1,8.5a19.06,19.06,0,0,1-7.7-1.4,12.82,12.82,0,0,1,.5-2.7,11.66,11.66,0,0,1,1-2.6,16.47,16.47,0,0,0,6,1.3c2.5,0,4.6-1,4.6-2.7s-1-2.1-2.7-2.6S55.2,83,53,80.8Z"></path><path class="a" d="M108.9,83.6c.3,3.8,2.7,5.6,6.9,5.6a21,21,0,0,0,6.7-1.2,7.89,7.89,0,0,1,.9,2.3,9.25,9.25,0,0,1,.4,2.9,23.14,23.14,0,0,1-8.6,1.5c-8.4,0-13.2-4.5-13.2-13,0-6.7,3.6-13.3,12.2-13.3,7.6,0,11.1,5.8,11.1,12a29.17,29.17,0,0,1-.2,3.3H108.9Zm9.8-4.8c-.1-2.6-1.4-5.2-4.6-5.2-3.7,0-4.9,2.4-5.2,5.2Z"></path><path class="a" d="M90.2,94.1V79.8c0-2.6-.4-5.5-3.7-5.5-3.7,0-4.9,2.9-4.9,6.5V94a18.3,18.3,0,0,1-3.4.2,32.81,32.81,0,0,1-3.4-.2V58.5a18.3,18.3,0,0,1,3.4-.2,32.81,32.81,0,0,1,3.4.2V71.9a8.26,8.26,0,0,1,7-3.6c6,0,8.5,3.5,8.5,9.7V94.1a18.87,18.87,0,0,1-3.5.2A17.77,17.77,0,0,1,90.2,94.1Z"></path><path class="b" d="M125.1.4A52.32,52.32,0,0,0,87.5,16.3c13.6,1.9,21.8,15,24,27.4,10-28.6,24.9-38.5,32.8-38.5a14.91,14.91,0,0,1,5.6,1.4A52.68,52.68,0,0,0,125.1.4Z"></path><path class="c" d="M45,61.4c5.8-25.7,25.5-46.5,41.7-45.2a60.16,60.16,0,0,0-25.8-5.7A60.87,60.87,0,0,0,.9,61.4Z"></path><path class="d" d="M85.2,19.8c-7.6,0-15,5.5-20.1,10.8l4.4,13.5h38.4C105.1,29.7,95.8,19.8,85.2,19.8Z"></path><path class="e" d="M123.68,61.42a2.88,2.88,0,0,0-1.1,1.09,3.08,3.08,0,0,0-.4,1.49,2.85,2.85,0,0,0,.4,1.47,2.75,2.75,0,0,0,1.09,1.1,3,3,0,0,0,1.47.39,2.94,2.94,0,0,0,1.47-.39,2.77,2.77,0,0,0,1.1-1.1A2.94,2.94,0,0,0,128.1,64a3,3,0,0,0-.4-1.49,2.81,2.81,0,0,0-1.1-1.09,3,3,0,0,0-2.92,0Zm2.64.51a2.17,2.17,0,0,1,.88.87,2.37,2.37,0,0,1,.32,1.2,2.4,2.4,0,0,1-.31,1.19,2.32,2.32,0,0,1-.88.88,2.42,2.42,0,0,1-2.37,0,2.3,2.3,0,0,1-.87-.88,2.41,2.41,0,0,1-.32-1.19,2.48,2.48,0,0,1,.32-1.2,2.19,2.19,0,0,1,.89-.87,2.33,2.33,0,0,1,1.17-.31,2.38,2.38,0,0,1,1.17.31Zm-1.88,3.65V64.29h.17a.7.7,0,0,1,.44.14,2.28,2.28,0,0,1,.44.64l.26.51h.79l-.37-.63-.23-.38a1.08,1.08,0,0,0-.22-.24.64.64,0,0,0-.22-.12,1,1,0,0,0,.63-.3.81.81,0,0,0,.22-.58.84.84,0,0,0-.12-.45.7.7,0,0,0-.29-.3,1.2,1.2,0,0,0-.49-.13h-1.64v3.13Zm0-2.64h.26a2.86,2.86,0,0,1,.68.05.44.44,0,0,1,.22.14.45.45,0,0,1,0,.48.41.41,0,0,1-.21.15,3.15,3.15,0,0,1-.69,0h-.26v-.86Z"></path></svg>